<svg width="1578" height="677" viewBox="0 0 1578 677" fill="none" xmlns="http://www.w3.org/2000/svg">
<path d="M169.612 6.68353C202.719 -5.46314 242.105 -1.1298 270.505 20.3102C283.785 30.0169 293.719 43.8702 299.759 59.0969C313.625 93.5369 325.292 128.804 337.852 163.724C359.519 225.924 381.612 287.964 403.439 350.11C409.732 369.177 417.452 387.75 423.439 406.924C416.185 410.577 407.945 409.284 400.145 409.377C376.119 409.404 352.105 409.23 328.079 409.47C323.545 409.404 318.599 409.484 314.745 406.724C310.345 403.697 308.132 398.59 306.399 393.737C289.492 342.124 272.332 290.59 255.705 238.884C248.692 218.697 241.799 198.457 235.319 178.097C229.345 160.03 223.252 142.004 217.585 123.844C216.492 120.63 215.465 117.337 213.559 114.51C211.505 111.404 207.185 109.697 203.692 111.337C199.865 112.977 198.399 117.244 197.105 120.87C185.639 158.257 174.665 195.804 162.732 233.044C146.092 286.737 129.599 340.484 112.959 394.177C111.305 399.057 108.879 404.07 104.385 406.924C100.385 409.497 95.4253 409.363 90.8653 409.457C63.2786 409.177 35.6787 409.51 8.09199 409.31C5.35865 409.124 2.02531 408.657 0.598639 405.964C-0.654694 403.07 0.331987 399.844 1.09199 396.964C15.052 356.617 28.6653 316.15 42.5186 275.764C65.492 209.204 87.7586 142.404 110.532 75.7635C114.305 65.1502 117.359 54.1236 123.265 44.4169C133.692 26.9102 150.652 13.8035 169.612 6.68353Z" fill="#288CE2"/>
<path d="M1404.75 0.656997C1417.71 -0.40967 1430.72 0.456989 1443.63 1.85699C1483.81 6.45699 1523 21.5637 1554.95 46.537C1556.84 48.2303 1559.23 50.3503 1558.77 53.1903C1558.2 56.1903 1556.33 58.737 1554.61 61.1903C1543.63 75.577 1532.95 90.1903 1522.16 104.724C1518.88 109.017 1516.15 113.83 1512.07 117.43C1510.17 119.27 1507.29 118.87 1505.15 117.79C1499.55 115.11 1494.57 111.297 1489.05 108.444C1471.97 99.4037 1453.59 92.5503 1434.43 89.577C1421.48 87.217 1407.93 87.457 1395.27 91.217C1386.41 94.0303 1377.63 99.337 1373.52 108.004C1369.05 117.524 1369.53 129.99 1376.79 138.044C1382.25 144.137 1389.92 147.59 1397.35 150.684C1418.16 158.95 1440.11 163.777 1461.4 170.63C1483.67 177.737 1506.11 185.457 1525.77 198.364C1541.52 208.497 1554.89 222.51 1563.55 239.164C1573.53 258.63 1576.09 281.23 1573.61 302.777C1571.33 323.764 1563.32 344.11 1550.41 360.844C1542.29 371.79 1531.83 380.79 1520.69 388.55C1493.96 406.804 1461.64 415.404 1429.57 417.284C1414.16 417.657 1398.67 417.83 1383.37 415.604C1338.27 409.55 1293.88 393.257 1257.89 364.99C1255.37 362.91 1252.21 359.99 1253.63 356.364C1255.56 351.51 1259.33 347.724 1262.39 343.577C1272.12 330.644 1281.99 317.817 1291.8 304.937C1295.08 300.697 1298.01 296.164 1301.73 292.257C1303.32 290.737 1305.39 288.644 1307.83 289.577C1311.25 290.697 1314.12 292.99 1317.07 295.017C1326.77 302.15 1337.35 308.004 1348.12 313.364C1368.12 323.19 1389.76 330.044 1412.05 331.75C1424.33 332.55 1436.95 331.404 1448.51 326.964C1456.57 323.897 1463.96 318.51 1468.49 311.057C1472.63 304.417 1473.33 296.057 1471.51 288.564C1469.24 279.99 1462.31 273.55 1454.73 269.457C1441.92 262.564 1427.85 258.51 1414.09 253.99C1382 243.95 1348.32 237.19 1319.15 219.724C1301.95 209.95 1287.64 195.39 1277.81 178.27C1267.96 160.617 1264.29 140.03 1265.24 119.964C1265.73 85.7103 1283.81 52.6437 1311.44 32.6303C1338.21 12.4837 1371.59 2.71033 1404.75 0.656997Z" fill="#288CE2"/>
<path d="M436.198 9.86975C438.251 7.76308 441.385 8.13641 444.078 7.94975C469.891 8.24308 495.718 8.04308 521.545 8.06974C529.998 8.12308 538.931 9.05641 546.091 13.9497C554.078 19.4031 559.118 27.8964 564.518 35.6831C582.771 63.5631 602.625 90.3764 619.811 118.95C621.678 122.016 623.358 125.243 625.745 127.976C626.718 129.403 628.651 129.47 630.145 128.936C633.785 125.656 635.958 121.163 638.531 117.083C657.291 86.5631 676.358 56.2298 695.225 25.7898C698.665 20.4431 702.985 15.3364 708.878 12.6164C716.945 8.88308 725.971 7.8431 734.785 7.8431C759.265 7.89643 783.758 7.94974 808.238 7.81641C811.411 8.10974 816.118 7.30975 817.371 11.2031C818.705 15.4431 815.811 19.3764 813.665 22.7898C805.665 34.0564 798.345 45.7764 790.718 57.2831C761.545 101.47 732.625 145.83 703.545 190.083C700.225 195.283 696.145 200.11 693.958 205.95C692.625 209.376 694.931 212.683 696.585 215.55C718.185 247.763 739.238 280.336 760.851 312.563C775.518 335.163 790.705 357.443 805.438 380.016C809.758 386.75 814.878 392.936 819.105 399.736C820.971 402.603 822.278 407.056 819.038 409.523C816.105 410.936 812.718 410.67 809.558 410.803C784.625 410.523 759.705 410.736 734.771 410.683C725.478 410.51 715.518 409.976 707.545 404.643C699.678 399.416 695.451 390.67 690.491 382.95C672.411 354.31 654.305 325.683 636.758 296.71C634.385 292.91 632.318 288.79 629.065 285.643C626.171 284.71 625.145 288.47 623.598 290.176C606.905 318.243 589.705 346.003 572.665 373.856C568.145 380.936 564.051 388.296 559.265 395.19C554.198 402.456 546.105 407.563 537.345 408.843C533.411 409.416 529.425 409.416 525.465 409.416C505.918 409.256 486.358 409.403 466.811 409.336C456.851 409.256 446.785 410.136 436.971 407.95C437.491 403.936 438.105 399.763 440.531 396.416C459.811 368.07 478.705 339.456 497.638 310.883C517.851 280.71 537.531 250.19 557.158 219.643C559.291 216.003 561.985 212.35 562.265 208.016C561.251 202.55 557.371 198.203 554.491 193.616C515.945 135.736 477.678 77.6564 439.145 19.7631C437.331 16.8031 435.385 13.4698 436.198 9.86975Z" fill="#288CE2"/>
<path d="M847.212 8.20316C852.732 6.80316 858.519 7.58982 864.159 7.49649C891.719 7.56316 919.292 7.56315 946.865 7.44315C950.439 7.57648 954.252 7.53648 957.532 9.22981C960.919 11.1365 963.105 14.5098 965.105 17.7365C989.945 62.1765 1014.85 106.59 1040.01 150.856C1043.35 156.376 1045.75 162.563 1050.03 167.456C1050.47 167.563 1051.36 167.763 1051.8 167.87C1055.35 163.51 1057.61 158.31 1060.33 153.417C1083.83 110.803 1107.64 68.3632 1131.32 25.8432C1134.21 20.8298 1136.56 15.3631 1140.53 11.0565C1143.84 7.60314 1149 7.68314 1153.43 7.48314C1182.77 7.57648 1212.13 7.57649 1241.48 7.49649C1245.71 7.50982 1249.93 7.72316 1254.17 8.04316C1251.55 14.9765 1247.37 21.1365 1243.43 27.3632C1209.41 83.0698 1175.48 138.83 1141.33 194.457C1129.88 213.23 1118.55 232.083 1106.85 250.71C1103.51 255.817 1101.28 261.723 1101.49 267.896C1101.57 307.043 1101.43 346.177 1101.6 385.323C1101.47 391.23 1102.35 397.377 1100.48 403.097C1098.33 408.417 1091.99 409.51 1086.91 409.43C1065.99 409.297 1045.07 409.323 1024.15 409.35C1018 409.297 1011.81 409.803 1005.71 409.07C1002.04 408.67 998.625 406.31 997.212 402.896C996.012 399.883 996.079 396.577 996.012 393.403C996.452 350.683 995.305 307.963 994.759 265.257C994.719 260.577 992.959 256.163 990.585 252.23C958.332 198.363 925.332 144.963 892.772 91.2832C879.199 69.2832 865.972 47.0698 852.332 25.1098C849.452 20.2298 845.319 15.5232 845.252 9.57649C845.745 9.24315 846.719 8.54982 847.212 8.20316Z" fill="#288CE2"/>
<path d="M936.545 508.417C946.531 508.43 956.518 508.43 966.505 508.403C984.385 552.537 1001.33 597.03 1018.88 641.297C1023.04 651.91 1027.33 662.47 1031.12 673.243C1020.89 673.43 1010.66 673.457 1000.44 673.177C997.185 664.43 993.731 655.763 990.571 646.99C989.331 643.91 988.305 640.617 986.091 638.083C983.705 637.643 981.278 637.657 978.905 637.643C957.651 637.937 936.411 637.723 915.171 637.763C910.278 649.483 906.051 661.457 901.331 673.23C891.625 673.443 881.918 673.457 872.225 673.163C893.678 618.257 914.998 563.297 936.545 508.417ZM951.398 541.283C942.971 564.95 933.785 588.337 925.331 611.99C942.718 612.123 960.105 612.11 977.491 611.937C971.945 596.697 966.131 581.563 960.571 566.323C957.505 557.977 954.731 549.523 951.398 541.283Z" fill="#288CE2"/>
<path d="M1050.57 508.351C1059.96 508.457 1069.35 508.457 1078.75 508.311C1078.95 535.764 1078.77 563.204 1078.83 590.657C1078.93 601.044 1078.09 611.671 1081.04 621.777C1083.47 630.537 1088.53 638.964 1096.53 643.657C1105.88 649.431 1117.35 650.044 1128.01 649.071C1137.32 648.137 1146.61 643.751 1152.08 635.964C1157.77 627.884 1159.97 617.831 1160.12 608.071C1160.24 574.817 1159.92 541.577 1160.25 508.324C1169.96 508.497 1179.65 508.497 1189.36 508.337C1189.72 539.764 1189.36 571.204 1189.55 602.644C1189.72 613.804 1189.12 625.191 1185.25 635.777C1180.81 648.577 1171.87 659.804 1160.13 666.657C1148.53 673.551 1134.89 676.377 1121.49 676.244C1105.63 676.644 1089.36 672.991 1076 664.217C1062.27 655.204 1053.96 639.591 1051.25 623.671C1049.57 610.964 1050.53 598.097 1050.28 585.324C1050.48 559.671 1049.88 534.004 1050.57 508.351Z" fill="#288CE2"/>
<path d="M1456.29 508.296C1496.74 508.256 1537.2 508.376 1577.65 508.203C1577.97 516.67 1577.96 525.137 1577.7 533.603C1562.56 533.91 1547.41 533.763 1532.28 533.643C1531.9 580.203 1532.21 626.75 1532.12 673.31C1522.34 673.376 1512.57 673.376 1502.81 673.31C1502.68 626.75 1502.98 580.19 1502.68 533.63C1487.17 533.763 1471.68 533.95 1456.2 533.576C1456.09 525.15 1456.09 516.723 1456.29 508.296Z" fill="#288CE2"/>
<path d="M1224.45 509.003C1239.01 508.377 1253.58 508.897 1268.14 508.75C1280.93 508.87 1293.92 508.017 1306.48 511.017C1323.76 515.057 1340.28 524.03 1351.61 537.897C1364.02 552.91 1370.22 572.603 1369.65 591.99C1370.06 608.763 1365.28 625.696 1355.74 639.536C1346.94 652.323 1333.98 662.07 1319.42 667.35C1306.97 672.27 1293.42 673.497 1280.14 673.376C1261.58 673.217 1243.02 673.523 1224.48 673.203C1224.61 618.47 1224.58 563.737 1224.45 509.003ZM1253.68 533.67C1253.5 571.657 1253.48 609.657 1253.69 647.643C1262.97 647.47 1272.25 647.55 1281.53 647.616C1288.9 647.643 1296.4 647.097 1303.44 644.683C1317.65 639.95 1329.32 628.537 1334.88 614.67C1339.16 604.19 1340.13 592.563 1338.7 581.39C1336.18 561.63 1321.98 543.563 1302.92 537.363C1287.06 531.883 1270.09 534.31 1253.68 533.67Z" fill="#288CE2"/>
<path d="M1400.43 509.11C1410.11 508.684 1419.8 508.75 1429.48 509.057C1429.49 563.804 1429.51 618.55 1429.47 673.31C1419.79 673.39 1410.11 673.417 1400.43 673.23C1400.63 618.524 1400.63 563.817 1400.43 509.11Z" fill="#288CE2"/>
</svg>
