<svg width="1373" height="1320" viewBox="0 0 1373 1320" fill="none" xmlns="http://www.w3.org/2000/svg">
<path d="M275.354 695.214C205.84 629.672 237.067 513.132 330.039 491.129L860.3 365.631C948.673 344.716 1027.35 425.744 1003.85 513.464L870.058 1012.78C846.553 1100.5 737.901 1131.33 671.825 1069.03L275.354 695.214Z" fill="url(#paint0_linear_76_604)"/>
<path d="M650.005 492.005C678.699 481.09 712.836 484.984 737.451 504.25C748.961 512.973 757.57 525.421 762.805 539.104C774.823 570.052 784.935 601.743 795.821 633.122C814.6 689.015 833.748 744.764 852.666 800.609C858.12 817.742 864.811 834.433 870 851.662C863.713 854.945 856.572 853.782 849.811 853.866C828.987 853.89 808.174 853.734 787.35 853.95C783.421 853.89 779.134 853.962 775.794 851.482C771.98 848.762 770.062 844.173 768.56 839.812C753.907 793.432 739.034 747.124 724.623 700.661C718.545 682.521 712.57 664.333 706.954 646.038C701.777 629.803 696.495 613.604 691.584 597.286C690.637 594.398 689.747 591.439 688.094 588.899C686.315 586.107 682.57 584.573 679.543 586.047C676.226 587.521 674.955 591.355 673.834 594.614C663.896 628.209 654.385 661.949 644.042 695.413C629.62 743.662 615.325 791.959 600.903 840.208C599.47 844.593 597.367 849.098 593.472 851.662C590.005 853.974 585.706 853.854 581.754 853.938C557.844 853.687 533.923 853.986 510.013 853.806C507.644 853.639 504.755 853.219 503.519 850.799C502.433 848.199 503.288 845.3 503.946 842.712C516.046 806.456 527.845 770.093 539.851 733.801C559.763 673.99 579.062 613.964 598.8 554.081C602.07 544.544 604.716 534.635 609.836 525.913C618.873 510.181 633.572 498.403 650.005 492.005Z" fill="#FEFEFE"/>
<defs>
<linearGradient id="paint0_linear_76_604" x1="773.5" y1="259.5" x2="662" y2="1178.5" gradientUnits="userSpaceOnUse">
<stop stop-color="#288CE2"/>
<stop offset="1" stop-color="#12CFF3"/>
</linearGradient>
</defs>
</svg>
